<svg xmlns="http://www.w3.org/2000/svg" viewBox="0 0 196 91.26"><g id="e3badd5f-65d8-410e-8555-c0e50d53ed43" data-name="Livello 2"><g id="f7ef0b44-34f0-48c5-a696-73f615757849" data-name="Livello 1"><g id="bd891a8a-5cbe-4251-88a0-c4518e51be02" data-name="Logo Colori"><path id="bc815176-6763-4925-ad8b-0c144420f624" data-name="Tracciato 14126" d="M67.73,4.36C66.91,11,49.91,23,49.91,23h0l-4.12,3.27A138.21,138.21,0,0,0,31.24,38.84c-1.79,1.84-3.61,3.94-5.18,5.81-.5.6-1,1.44-1.35,2a22.46,22.46,0,0,0-4,9,17.87,17.87,0,0,0,2.59,12l1.12,1.72a51.7,51.7,0,0,0,9.63,9.12c1.77-1.55,3.5-3.15,5.43-4.56-.5-.46-.7-.71-1.12-1.11s-.81-.77-1.23-1.11c-2.59-2.12-5.12-4.19-6.9-7L29,63c-1.77-3-3.14-5.69-2.84-10.61a18,18,0,0,1,3-8.27A35.69,35.69,0,0,1,34.09,38,123.26,123.26,0,0,1,46.3,27.38l4.4-3.29S72.79,8.68,73.71,0Z" style="fill:#c8c8c8"/><path id="f1617498-6fe1-4457-8971-4c8dde68843f" data-name="Tracciato 14127" d="M24.4,68.5l5.16-4.12c6.19-4.91,14.09-10.77,18.87-17.69a21.48,21.48,0,0,0,3.79-8.5A17.2,17.2,0,0,0,50,27a19.83,19.83,0,0,0-1.61-2.48A37.75,37.75,0,0,0,42,18.15c-.45-.36-.89-.71-1.35-1l-1.39-1s-2.9,1.26-4.48,1.77c1,.95,2,1.73,2.84,2.44A35.23,35.23,0,0,1,44,27.06a18.22,18.22,0,0,1,2.73,4.56,15.16,15.16,0,0,1,1,5.32,17.38,17.38,0,0,1-.36,3.37c-.07.27-.25.61-.36.95-1.37,4.85-4.43,8.57-7.55,11.91a83.62,83.62,0,0,1-11.09,9.68l-5.22,4.2C21.17,68.63,1.55,82.7,0,91.26l5-1.61c2.33-8.71,14.61-17.57,18.28-20.27Z" style="fill:#ffc629"/><path id="bdf3650f-bd2a-47c0-a79b-56eb9ccf12f6" data-name="Tracciato 14128" d="M69.66,59.76A17,17,0,0,1,64.59,59a22,22,0,0,1-3.91-1.55v-5.1h.25c.39.3.84.64,1.36,1a15.34,15.34,0,0,0,2.1,1.16,19.55,19.55,0,0,0,2.55,1,10.53,10.53,0,0,0,2.9.41,12,12,0,0,0,2.32-.25A5.69,5.69,0,0,0,74,55a3.05,3.05,0,0,0,1.6-3.07,3.13,3.13,0,0,0-.88-2.44,7.3,7.3,0,0,0-3.13-1.38c-.59-.16-1.35-.32-2.28-.51s-1.8-.4-2.59-.63a8.28,8.28,0,0,1-4.51-2.77,7.9,7.9,0,0,1,1.36-10.5,11.07,11.07,0,0,1,7.33-2.3,18.65,18.65,0,0,1,4.52.56,15.85,15.85,0,0,1,3.83,1.4v4.87H79a14.27,14.27,0,0,0-3.89-2.17,12,12,0,0,0-4.31-.8,7.2,7.2,0,0,0-3.8.94,3.15,3.15,0,0,0-1.56,2.86,3.24,3.24,0,0,0,.92,2.52,7.11,7.11,0,0,0,3,1.37c.67.18,1.43.36,2.26.52s1.71.37,2.62.6a8.6,8.6,0,0,1,4.52,2.49,7,7,0,0,1,1.52,4.74,7.83,7.83,0,0,1-.7,3.3,7.21,7.21,0,0,1-2,2.68,10.55,10.55,0,0,1-3.29,1.84,14.21,14.21,0,0,1-4.58.63" style="fill:#236092"/><path id="af8c4e73-6d60-4705-95a1-c0625939f159" data-name="Tracciato 14129" d="M99.67,52.45V45c-1.09.09-2.45.23-4.1.4a21.84,21.84,0,0,0-4,.71,7.28,7.28,0,0,0-3,1.71A4.24,4.24,0,0,0,87.37,51a4.52,4.52,0,0,0,1.31,3.51,5.45,5.45,0,0,0,3.82,1.19,8.26,8.26,0,0,0,3.9-.94,17.53,17.53,0,0,0,3.27-2.27m0,3.77c-.37.28-.87.66-1.49,1.15a10.76,10.76,0,0,1-1.81,1.17,12.87,12.87,0,0,1-2.33,1,11.56,11.56,0,0,1-3.16.34,8.06,8.06,0,0,1-3.17-.65,7.86,7.86,0,0,1-2.64-1.77,8.14,8.14,0,0,1-1.74-2.74,9.88,9.88,0,0,1,.53-8.23,8.09,8.09,0,0,1,3.75-3.14A18.58,18.58,0,0,1,93,41.9q3.1-.4,6.69-.59v-.87a6.06,6.06,0,0,0-.48-2.59,3.61,3.61,0,0,0-1.36-1.51,5.27,5.27,0,0,0-2.13-.74,18.68,18.68,0,0,0-2.59-.18,17.86,17.86,0,0,0-3.71.47,25.25,25.25,0,0,0-4.26,1.39h-.26V32.64c1.19-.32,2.4-.59,3.61-.79a25.84,25.84,0,0,1,4.64-.43,21.21,21.21,0,0,1,4.7.44,8.93,8.93,0,0,1,3.43,1.57,6.74,6.74,0,0,1,2.21,2.88,11.3,11.3,0,0,1,.72,4.31v18.5H99.67Z" style="fill:#236092"/><rect id="bb3e2875-3012-44ef-9c94-da090b844b3c" data-name="Rettangolo 2284" x="110.42" y="22.82" width="5.18" height="4.72" style="fill:#ffc629"/><rect id="ae2e9f22-4e84-40e5-bf1e-b5c9897a085f" data-name="Rettangolo 2285" x="110.74" y="32.07" width="4.55" height="27.04" style="fill:#236092"/><path id="eb76611b-fcfc-4d8f-b890-285f2ef02c2e" data-name="Tracciato 14130" d="M137.83,52.52V36.93a15.35,15.35,0,0,0-3-1.14,13.05,13.05,0,0,0-2.92-.31,6.52,6.52,0,0,0-5.5,2.63c-1.33,1.75-2,4.27-2,7.58s.51,5.61,1.52,7.3a5.25,5.25,0,0,0,4.89,2.52,8.8,8.8,0,0,0,3.61-.8,13.63,13.63,0,0,0,3.41-2.2m-12.16,6.42a8.65,8.65,0,0,1-3.19-2.69,13.34,13.34,0,0,1-2.06-4.42,23.16,23.16,0,0,1-.73-6,18.68,18.68,0,0,1,.92-6.16,14.68,14.68,0,0,1,2.55-4.55,10.65,10.65,0,0,1,3.57-2.78,10.13,10.13,0,0,1,4.4-1,12.75,12.75,0,0,1,3.53.44,15.72,15.72,0,0,1,3.17,1.39V21.44h4.55V59.11h-4.55V56.35c-.7.6-1.32,1.08-1.83,1.47a10.72,10.72,0,0,1-1.82,1.07,11,11,0,0,1-2,.71,10.31,10.31,0,0,1-2.42.25,9,9,0,0,1-4.08-.91" style="fill:#236092"/><path id="acf8768f-8db0-408e-95c7-1380fc9a5216" data-name="Tracciato 14131" d="M166.36,42.57a12.61,12.61,0,0,0-.43-3.17,6.42,6.42,0,0,0-1.12-2.25,5,5,0,0,0-2-1.55,9.17,9.17,0,0,0-6.18,0,7.37,7.37,0,0,0-3.85,3.94,10.18,10.18,0,0,0-.68,3ZM161,59.73q-6.45,0-10-3.64t-3.56-10.36q0-6.6,3.46-10.51a11.49,11.49,0,0,1,9-3.91,12.76,12.76,0,0,1,4.46.72,8.88,8.88,0,0,1,3.38,2.28A10.41,10.41,0,0,1,170,38.1a16.67,16.67,0,0,1,.77,5.48v2.47H152.06c0,3.14.79,5.55,2.37,7.21a8.68,8.68,0,0,0,6.57,2.5,13.53,13.53,0,0,0,5.53-1.2,17.74,17.74,0,0,0,2.08-1.07,15.4,15.4,0,0,0,1.41-1h.25v4.94l-2,.79a21.18,21.18,0,0,1-2.13.74c-.88.24-1.68.43-2.4.56a15.49,15.49,0,0,1-2.72.19" style="fill:#236092"/><path id="a912a70e-de85-4730-b31a-027675c1e32a" data-name="Tracciato 14132" d="M190.46,52.45V45c-1.08.09-2.45.23-4.1.4a21.74,21.74,0,0,0-4,.71,7.32,7.32,0,0,0-3,1.71,4.31,4.31,0,0,0-1.19,3.2,4.53,4.53,0,0,0,1.32,3.52,5.49,5.49,0,0,0,3.82,1.18,8.09,8.09,0,0,0,3.89-.93,16.51,16.51,0,0,0,3.27-2.28m0,3.78c-.37.28-.87.66-1.48,1.15a10.17,10.17,0,0,1-1.81,1.17,12.87,12.87,0,0,1-2.33,1,11.6,11.6,0,0,1-3.16.34,8,8,0,0,1-3.17-.65,7.78,7.78,0,0,1-4.38-4.51,9.88,9.88,0,0,1,.53-8.23,7.94,7.94,0,0,1,3.75-3.14,18.55,18.55,0,0,1,5.38-1.44c2.06-.26,4.3-.46,6.67-.58v-.88a5.84,5.84,0,0,0-.48-2.58,3.63,3.63,0,0,0-1.36-1.52,5.35,5.35,0,0,0-2.13-.73,16,16,0,0,0-2.59-.18,17.2,17.2,0,0,0-3.7.47,25.74,25.74,0,0,0-4.26,1.36h-.25V32.64c1.19-.32,2.4-.59,3.61-.79a25.76,25.76,0,0,1,4.64-.43,21.21,21.21,0,0,1,4.7.44,9,9,0,0,1,3.44,1.57,6.8,6.8,0,0,1,2.2,2.88,11.33,11.33,0,0,1,.72,4.31v18.5h-4.53Z" style="fill:#236092"/><path id="aa575ae3-91ac-4337-beaf-56b0e539bc89" data-name="Tracciato 14133" d="M192.78,25.43a.88.88,0,0,0-.07-.32.66.66,0,0,0-.21-.23,1,1,0,0,0-.3-.11,1.84,1.84,0,0,0-.41,0h-.57v1.58h.5a2.32,2.32,0,0,0,.46,0,.7.7,0,0,0,.34-.18.67.67,0,0,0,.19-.28,1.21,1.21,0,0,0,.06-.38m1.26,3h-.75l-1.4-1.67h-.67v1.67h-.58V24.26h1.14a4.44,4.44,0,0,1,.63,0,1.12,1.12,0,0,1,.49.18,1.06,1.06,0,0,1,.37.36,1.08,1.08,0,0,1,.13.56,1.19,1.19,0,0,1-.25.75,1.47,1.47,0,0,1-.67.46Z" style="fill:#236092"/><path id="f6842cb0-f12e-4898-bb79-981736534a02" data-name="Tracciato 14134" d="M192.06,29.91a3.56,3.56,0,1,1,3.56-3.55,3.57,3.57,0,0,1-3.56,3.55m0-7.5A3.95,3.95,0,1,0,196,26.36h0a4,4,0,0,0-3.94-3.94" style="fill:#236092"/></g></g></g></svg>